<svg width="50" height="50" viewBox="0 0 50 50" fill="none" xmlns="http://www.w3.org/2000/svg">
<path d="M26.6016 46.5469H23.2734C22.9141 46.5469 22.6016 46.2969 22.5078 45.9531L19.5234 33.4219H24.2109L27.1641 45.8438C27.2578 46.1875 26.9766 46.5469 26.6016 46.5469Z" fill="url(#paint0_linear_2_2)"/>
<path d="M26.6016 46.5469H23.2734C22.9141 46.5469 22.6016 46.2969 22.5078 45.9531L19.5234 33.4219H24.2109L27.1641 45.8438C27.2578 46.1875 26.9766 46.5469 26.6016 46.5469Z" fill="url(#paint1_linear_2_2)"/>
<path d="M26.6016 46.5469H23.2734C22.9141 46.5469 22.6016 46.2969 22.5078 45.9531L19.5234 33.4219H24.2109L27.1641 45.8438C27.2578 46.1875 26.9766 46.5469 26.6016 46.5469Z" fill="url(#paint2_linear_2_2)"/>
<path d="M26.6016 46.5469H23.2734C22.9141 46.5469 22.6016 46.2969 22.5078 45.9531L19.5234 33.4219H24.2109L27.1641 45.8438C27.2578 46.1875 26.9766 46.5469 26.6016 46.5469Z" fill="url(#paint3_linear_2_2)"/>
<path d="M26.6016 46.5469H23.2734C22.9141 46.5469 22.6016 46.2969 22.5078 45.9531L19.5234 33.4219H24.2109L27.1641 45.8438C27.2578 46.1875 26.9766 46.5469 26.6016 46.5469Z" fill="url(#paint4_linear_2_2)"/>
<path d="M26.6016 46.5469H23.2734C22.9141 46.5469 22.6016 46.2969 22.5078 45.9531L19.5234 33.4219H24.2109L27.1641 45.8438C27.2578 46.1875 26.9766 46.5469 26.6016 46.5469Z" fill="url(#paint5_linear_2_2)"/>
<path d="M29.1328 46.5469H32.4609C32.8203 46.5469 33.1328 46.2969 33.2266 45.9531L36.2109 33.4219H31.5234L28.5703 45.8438C28.4766 46.1875 28.7578 46.5469 29.1328 46.5469V46.5469Z" fill="url(#paint6_linear_2_2)"/>
<path d="M29.1328 46.5469H32.4609C32.8203 46.5469 33.1328 46.2969 33.2266 45.9531L36.2109 33.4219H31.5234L28.5703 45.8438C28.4766 46.1875 28.7578 46.5469 29.1328 46.5469V46.5469Z" fill="url(#paint7_linear_2_2)"/>
<path d="M29.1328 46.5469H32.4609C32.8203 46.5469 33.1328 46.2969 33.2266 45.9531L36.2109 33.4219H31.5234L28.5703 45.8438C28.4766 46.1875 28.7578 46.5469 29.1328 46.5469V46.5469Z" fill="url(#paint8_linear_2_2)"/>
<path d="M29.1328 46.5469H32.4609C32.8203 46.5469 33.1328 46.2969 33.2266 45.9531L36.2109 33.4219H31.5234L28.5703 45.8438C28.4766 46.1875 28.7578 46.5469 29.1328 46.5469V46.5469Z" fill="url(#paint9_linear_2_2)"/>
<path d="M29.1328 46.5469H32.4609C32.8203 46.5469 33.1328 46.2969 33.2266 45.9531L36.2109 33.4219H31.5234L28.5703 45.8438C28.4766 46.1875 28.7578 46.5469 29.1328 46.5469V46.5469Z" fill="url(#paint10_linear_2_2)"/>
<path d="M29.1328 46.5469H32.4609C32.8203 46.5469 33.1328 46.2969 33.2266 45.9531L36.2109 33.4219H31.5234L28.5703 45.8438C28.4766 46.1875 28.7578 46.5469 29.1328 46.5469V46.5469Z" fill="url(#paint11_linear_2_2)"/>
<path d="M36.0391 4.35937C35.1484 4.34375 34.2734 4.45312 33.4453 4.64062C32.3984 4.875 31.9141 6.09375 32.5078 6.98437C32.5078 7 32.5234 7 32.5234 7.01562C32.8828 7.5625 33.5391 7.82812 34.1797 7.6875C34.7422 7.54687 35.3359 7.48437 35.9297 7.48437C40.3672 7.48437 43.9609 11.2031 43.7266 15.6875C43.5234 19.6719 40.3047 22.9062 36.3047 23.0937C35.0234 23.1562 33.8203 22.9062 32.7422 22.4219C32.6172 22.6719 32.4141 22.875 32.1953 23.0469C32.2109 23.8437 32.1797 24.7187 31.9297 25.4687C33.1641 25.9687 34.5234 26.2344 35.9297 26.2344C42.0234 26.2344 46.9453 21.25 46.8672 15.1406C46.7891 9.23437 41.9453 4.42187 36.0391 4.35937V4.35937Z" fill="url(#paint12_radial_2_2)"/>
<path d="M36.0391 4.35937C35.1484 4.34375 34.2734 4.45312 33.4453 4.64062C32.3984 4.875 31.9141 6.09375 32.5078 6.98437C32.5078 7 32.5234 7 32.5234 7.01562C32.8828 7.5625 33.5391 7.82812 34.1797 7.6875C34.7422 7.54687 35.3359 7.48437 35.9297 7.48437C40.3672 7.48437 43.9609 11.2031 43.7266 15.6875C43.5234 19.6719 40.3047 22.9062 36.3047 23.0937C35.0234 23.1562 33.8203 22.9062 32.7422 22.4219C32.6172 22.6719 32.4141 22.875 32.1953 23.0469C32.2109 23.8437 32.1797 24.7187 31.9297 25.4687C33.1641 25.9687 34.5234 26.2344 35.9297 26.2344C42.0234 26.2344 46.9453 21.25 46.8672 15.1406C46.7891 9.23437 41.9453 4.42187 36.0391 4.35937V4.35937Z" fill="url(#paint13_radial_2_2)"/>
<path d="M36.0391 4.35937C35.1484 4.34375 34.2734 4.45312 33.4453 4.64062C32.3984 4.875 31.9141 6.09375 32.5078 6.98437C32.5078 7 32.5234 7 32.5234 7.01562C32.8828 7.5625 33.5391 7.82812 34.1797 7.6875C34.7422 7.54687 35.3359 7.48437 35.9297 7.48437C40.3672 7.48437 43.9609 11.2031 43.7266 15.6875C43.5234 19.6719 40.3047 22.9062 36.3047 23.0937C35.0234 23.1562 33.8203 22.9062 32.7422 22.4219C32.6172 22.6719 32.4141 22.875 32.1953 23.0469C32.2109 23.8437 32.1797 24.7187 31.9297 25.4687C33.1641 25.9687 34.5234 26.2344 35.9297 26.2344C42.0234 26.2344 46.9453 21.25 46.8672 15.1406C46.7891 9.23437 41.9453 4.42187 36.0391 4.35937V4.35937Z" fill="url(#paint14_radial_2_2)"/>
<path d="M36.0391 4.35937C35.1484 4.34375 34.2734 4.45312 33.4453 4.64062C32.3984 4.875 31.9141 6.09375 32.5078 6.98437C32.5078 7 32.5234 7 32.5234 7.01562C32.8828 7.5625 33.5391 7.82812 34.1797 7.6875C34.7422 7.54687 35.3359 7.48437 35.9297 7.48437C40.3672 7.48437 43.9609 11.2031 43.7266 15.6875C43.5234 19.6719 40.3047 22.9062 36.3047 23.0937C35.0234 23.1562 33.8203 22.9062 32.7422 22.4219C32.6172 22.6719 32.4141 22.875 32.1953 23.0469C32.2109 23.8437 32.1797 24.7187 31.9297 25.4687C33.1641 25.9687 34.5234 26.2344 35.9297 26.2344C42.0234 26.2344 46.9453 21.25 46.8672 15.1406C46.7891 9.23437 41.9453 4.42187 36.0391 4.35937V4.35937Z" fill="url(#paint15_radial_2_2)"/>
<path d="M33.5859 16.8594C32.0547 16.8594 30.5234 17.2031 29.1484 17.875L21.6953 21.5C21.0547 21.8125 20.3203 21.3437 20.3203 20.6406V18.5625C20.3203 16.6094 19.5859 14.8281 18.3828 13.4687L12.0547 6.42187C11.6641 5.98437 10.9297 6.24999 10.9297 6.84374V10.1453C10.9297 10.6922 10.5484 11.1547 10.0422 11.3594C7.55 12.3641 5.65 15.0203 5.11719 17.75C5.03906 18.1406 4.69531 18.4219 4.30469 18.4219C3.98974 18.4219 3.6877 18.547 3.465 18.7697C3.2423 18.9924 3.11719 19.2944 3.11719 19.6094V19.9531C3.11724 21.4572 3.65687 22.9114 4.63803 24.0514C5.61919 25.1914 6.97676 25.9416 8.46406 26.1656C8.97656 26.2422 9.39844 26.6547 9.39844 27.1719V28.7187C9.39768 30.2841 9.93007 31.8031 10.9079 33.0255C11.8858 34.2479 13.2508 35.1008 14.7781 35.4437C15.25 35.5484 15.6172 35.9453 15.6172 36.4281V45.9687C15.6172 46.2812 15.8828 46.5469 16.2109 46.5469H19.7266C20.0547 46.5469 20.3203 46.2812 20.3203 45.9531V36.5469C20.3203 36.2982 20.4191 36.0598 20.5949 35.884C20.7707 35.7081 21.0092 35.6094 21.2578 35.6094H31.8203C32.1797 35.6094 32.5234 35.75 32.7734 36L36.5391 39.7656C36.8672 40.0937 36.9609 40.5781 36.7734 41L34.7422 45.7344C34.5547 46.1094 34.8359 46.5469 35.2578 46.5469H38.6641C38.8984 46.5469 39.1172 46.4062 39.1953 46.1875L43.1328 36.9844C43.5391 36.0781 43.7422 35.0937 43.7422 34.1094V27.0156C43.7422 25.6819 43.4795 24.3612 42.9691 23.129C42.4587 21.8968 41.7106 20.7772 40.7675 19.8341C39.8244 18.891 38.7048 18.1429 37.4726 17.6325C36.2404 17.1221 34.9197 16.8594 33.5859 16.8594V16.8594Z" fill="url(#paint16_linear_2_2)"/>
<path d="M33.5859 16.8594C32.0547 16.8594 30.5234 17.2031 29.1484 17.875L21.6953 21.5C21.0547 21.8125 20.3203 21.3437 20.3203 20.6406V18.5625C20.3203 16.6094 19.5859 14.8281 18.3828 13.4687L12.0547 6.42187C11.6641 5.98437 10.9297 6.24999 10.9297 6.84374V10.1453C10.9297 10.6922 10.5484 11.1547 10.0422 11.3594C7.55 12.3641 5.65 15.0203 5.11719 17.75C5.03906 18.1406 4.69531 18.4219 4.30469 18.4219C3.98974 18.4219 3.6877 18.547 3.465 18.7697C3.2423 18.9924 3.11719 19.2944 3.11719 19.6094V19.9531C3.11724 21.4572 3.65687 22.9114 4.63803 24.0514C5.61919 25.1914 6.97676 25.9416 8.46406 26.1656C8.97656 26.2422 9.39844 26.6547 9.39844 27.1719V28.7187C9.39768 30.2841 9.93007 31.8031 10.9079 33.0255C11.8858 34.2479 13.2508 35.1008 14.7781 35.4437C15.25 35.5484 15.6172 35.9453 15.6172 36.4281V45.9687C15.6172 46.2812 15.8828 46.5469 16.2109 46.5469H19.7266C20.0547 46.5469 20.3203 46.2812 20.3203 45.9531V36.5469C20.3203 36.2982 20.4191 36.0598 20.5949 35.884C20.7707 35.7081 21.0092 35.6094 21.2578 35.6094H31.8203C32.1797 35.6094 32.5234 35.75 32.7734 36L36.5391 39.7656C36.8672 40.0937 36.9609 40.5781 36.7734 41L34.7422 45.7344C34.5547 46.1094 34.8359 46.5469 35.2578 46.5469H38.6641C38.8984 46.5469 39.1172 46.4062 39.1953 46.1875L43.1328 36.9844C43.5391 36.0781 43.7422 35.0937 43.7422 34.1094V27.0156C43.7422 25.6819 43.4795 24.3612 42.9691 23.129C42.4587 21.8968 41.7106 20.7772 40.7675 19.8341C39.8244 18.891 38.7048 18.1429 37.4726 17.6325C36.2404 17.1221 34.9197 16.8594 33.5859 16.8594V16.8594Z" fill="url(#paint17_radial_2_2)"/>
<path d="M33.5859 16.8594C32.0547 16.8594 30.5234 17.2031 29.1484 17.875L21.6953 21.5C21.0547 21.8125 20.3203 21.3437 20.3203 20.6406V18.5625C20.3203 16.6094 19.5859 14.8281 18.3828 13.4687L12.0547 6.42187C11.6641 5.98437 10.9297 6.24999 10.9297 6.84374V10.1453C10.9297 10.6922 10.5484 11.1547 10.0422 11.3594C7.55 12.3641 5.65 15.0203 5.11719 17.75C5.03906 18.1406 4.69531 18.4219 4.30469 18.4219C3.98974 18.4219 3.6877 18.547 3.465 18.7697C3.2423 18.9924 3.11719 19.2944 3.11719 19.6094V19.9531C3.11724 21.4572 3.65687 22.9114 4.63803 24.0514C5.61919 25.1914 6.97676 25.9416 8.46406 26.1656C8.97656 26.2422 9.39844 26.6547 9.39844 27.1719V28.7187C9.39768 30.2841 9.93007 31.8031 10.9079 33.0255C11.8858 34.2479 13.2508 35.1008 14.7781 35.4437C15.25 35.5484 15.6172 35.9453 15.6172 36.4281V45.9687C15.6172 46.2812 15.8828 46.5469 16.2109 46.5469H19.7266C20.0547 46.5469 20.3203 46.2812 20.3203 45.9531V36.5469C20.3203 36.2982 20.4191 36.0598 20.5949 35.884C20.7707 35.7081 21.0092 35.6094 21.2578 35.6094H31.8203C32.1797 35.6094 32.5234 35.75 32.7734 36L36.5391 39.7656C36.8672 40.0937 36.9609 40.5781 36.7734 41L34.7422 45.7344C34.5547 46.1094 34.8359 46.5469 35.2578 46.5469H38.6641C38.8984 46.5469 39.1172 46.4062 39.1953 46.1875L43.1328 36.9844C43.5391 36.0781 43.7422 35.0937 43.7422 34.1094V27.0156C43.7422 25.6819 43.4795 24.3612 42.9691 23.129C42.4587 21.8968 41.7106 20.7772 40.7675 19.8341C39.8244 18.891 38.7048 18.1429 37.4726 17.6325C36.2404 17.1221 34.9197 16.8594 33.5859 16.8594V16.8594Z" fill="url(#paint18_radial_2_2)"/>
<path d="M33.5859 16.8594C32.0547 16.8594 30.5234 17.2031 29.1484 17.875L21.6953 21.5C21.0547 21.8125 20.3203 21.3437 20.3203 20.6406V18.5625C20.3203 16.6094 19.5859 14.8281 18.3828 13.4687L12.0547 6.42187C11.6641 5.98437 10.9297 6.24999 10.9297 6.84374V10.1453C10.9297 10.6922 10.5484 11.1547 10.0422 11.3594C7.55 12.3641 5.65 15.0203 5.11719 17.75C5.03906 18.1406 4.69531 18.4219 4.30469 18.4219C3.98974 18.4219 3.6877 18.547 3.465 18.7697C3.2423 18.9924 3.11719 19.2944 3.11719 19.6094V19.9531C3.11724 21.4572 3.65687 22.9114 4.63803 24.0514C5.61919 25.1914 6.97676 25.9416 8.46406 26.1656C8.97656 26.2422 9.39844 26.6547 9.39844 27.1719V28.7187C9.39768 30.2841 9.93007 31.8031 10.9079 33.0255C11.8858 34.2479 13.2508 35.1008 14.7781 35.4437C15.25 35.5484 15.6172 35.9453 15.6172 36.4281V45.9687C15.6172 46.2812 15.8828 46.5469 16.2109 46.5469H19.7266C20.0547 46.5469 20.3203 46.2812 20.3203 45.9531V36.5469C20.3203 36.2982 20.4191 36.0598 20.5949 35.884C20.7707 35.7081 21.0092 35.6094 21.2578 35.6094H31.8203C32.1797 35.6094 32.5234 35.75 32.7734 36L36.5391 39.7656C36.8672 40.0937 36.9609 40.5781 36.7734 41L34.7422 45.7344C34.5547 46.1094 34.8359 46.5469 35.2578 46.5469H38.6641C38.8984 46.5469 39.1172 46.4062 39.1953 46.1875L43.1328 36.9844C43.5391 36.0781 43.7422 35.0937 43.7422 34.1094V27.0156C43.7422 25.6819 43.4795 24.3612 42.9691 23.129C42.4587 21.8968 41.7106 20.7772 40.7675 19.8341C39.8244 18.891 38.7048 18.1429 37.4726 17.6325C36.2404 17.1221 34.9197 16.8594 33.5859 16.8594V16.8594Z" fill="url(#paint19_radial_2_2)"/>
<path d="M20.3203 18.5625V20.6406C19.5063 21.0859 17.3406 23.4906 13.6891 25.3406C12.4531 25.9656 11.6625 26.2344 9.39844 26.2344C7.73255 26.2344 6.13489 25.5726 4.95692 24.3946C3.77896 23.2167 3.11719 21.619 3.11719 19.9531V19.6094C3.11719 18.9531 3.64844 18.4219 4.30469 18.4219C4.69531 18.4219 5.03906 18.1406 5.11719 17.75C5.71094 14.7031 8.00781 11.75 10.9297 11.0781V6.84374C10.9297 6.24999 11.6641 5.98437 12.0547 6.42187L18.3828 13.4687C19.5859 14.8281 20.3203 16.6094 20.3203 18.5625V18.5625Z" fill="url(#paint20_linear_2_2)"/>
<path d="M5.72656 19.1406C5.94531 18.8438 5.74219 18.4219 5.36719 18.4219H4.30469C3.98974 18.4219 3.6877 18.547 3.465 18.7697C3.2423 18.9924 3.11719 19.2944 3.11719 19.6094V19.9531C3.11719 20.5156 3.19375 21.0625 3.33281 21.5781C3.39687 21.8172 3.70312 21.8625 3.85156 21.6641L5.72656 19.1406V19.1406Z" fill="url(#paint21_radial_2_2)"/>
<path d="M5.72656 19.1406C5.94531 18.8438 5.74219 18.4219 5.36719 18.4219H4.30469C3.98974 18.4219 3.6877 18.547 3.465 18.7697C3.2423 18.9924 3.11719 19.2944 3.11719 19.6094V19.9531C3.11719 20.5156 3.19375 21.0625 3.33281 21.5781C3.39687 21.8172 3.70312 21.8625 3.85156 21.6641L5.72656 19.1406V19.1406Z" fill="url(#paint22_linear_2_2)"/>
<path d="M5.72656 19.1406C5.94531 18.8438 5.74219 18.4219 5.36719 18.4219H4.30469C3.98974 18.4219 3.6877 18.547 3.465 18.7697C3.2423 18.9924 3.11719 19.2944 3.11719 19.6094V19.9531C3.11719 20.5156 3.19375 21.0625 3.33281 21.5781C3.39687 21.8172 3.70312 21.8625 3.85156 21.6641L5.72656 19.1406V19.1406Z" fill="url(#paint23_linear_2_2)"/>
<path d="M5.72656 19.1406C5.94531 18.8438 5.74219 18.4219 5.36719 18.4219H4.30469C3.98974 18.4219 3.6877 18.547 3.465 18.7697C3.2423 18.9924 3.11719 19.2944 3.11719 19.6094V19.9531C3.11719 20.5156 3.19375 21.0625 3.33281 21.5781C3.39687 21.8172 3.70312 21.8625 3.85156 21.6641L5.72656 19.1406V19.1406Z" fill="url(#paint24_linear_2_2)"/>
<g filter="url(#filter0_f_2_2)">
<path d="M19.0359 34.5938V45.1156" stroke="url(#paint25_linear_2_2)" stroke-width="0.3" stroke-linecap="round"/>
</g>
<g filter="url(#filter1_f_2_2)">
<path d="M24.0312 36.9875L25.9688 44.7828" stroke="url(#paint26_linear_2_2)" stroke-width="0.2"/>
</g>
<g filter="url(#filter2_f_2_2)">
<path d="M32.125 37.2797L30.2687 45.2375" stroke="url(#paint27_linear_2_2)" stroke-opacity="0.5" stroke-width="0.2"/>
</g>
<g filter="url(#filter3_f_2_2)">
<path d="M32.7312 19.3344C34.3187 19.1625 36.2937 19.4 38.2984 20.5547C40.5453 21.85 41.35 24.1203 41.35 25.9016V35.2297" stroke="url(#paint28_linear_2_2)" stroke-linecap="round"/>
</g>
<g filter="url(#filter4_f_2_2)">
<path d="M41.1062 35.0328V36.8891L37.9328 44.5547" stroke="url(#paint29_linear_2_2)" stroke-width="0.5" stroke-linecap="round"/>
</g>
<g filter="url(#filter5_f_2_2)">
<path d="M15.85 16.2266L11.9062 7.10312L18.1688 15.0031C18.8256 15.8318 19.183 16.8582 19.1828 17.9156V22.3625C19.1828 22.7707 19.0207 23.1621 18.732 23.4508C18.4434 23.7394 18.0519 23.9016 17.6437 23.9016C17.2356 23.9016 16.8441 23.7394 16.5555 23.4508C16.2668 23.1621 16.1047 22.7707 16.1047 22.3625V17.4672C16.1054 17.0406 16.0187 16.6184 15.85 16.2266V16.2266Z" fill="url(#paint30_linear_2_2)"/>
</g>
<g filter="url(#filter6_f_2_2)">
<path d="M9.83906 16.8438H9.8375C9.41983 16.8438 9.08125 17.1823 9.08125 17.6V19.2375C9.08125 19.6552 9.41983 19.9937 9.8375 19.9937H9.83906C10.2567 19.9937 10.5953 19.6552 10.5953 19.2375V17.6C10.5953 17.1823 10.2567 16.8438 9.83906 16.8438Z" fill="#47387B"/>
</g>
<path d="M10.1563 16.8438H10.1547C9.73702 16.8438 9.39844 17.1823 9.39844 17.6V19.2375C9.39844 19.6552 9.73702 19.9937 10.1547 19.9937H10.1563C10.5739 19.9937 10.9125 19.6552 10.9125 19.2375V17.6C10.9125 17.1823 10.5739 16.8438 10.1563 16.8438Z" fill="url(#paint31_linear_2_2)"/>
<path d="M10.1563 16.8438H10.1547C9.73702 16.8438 9.39844 17.1823 9.39844 17.6V19.2375C9.39844 19.6552 9.73702 19.9937 10.1547 19.9937H10.1563C10.5739 19.9937 10.9125 19.6552 10.9125 19.2375V17.6C10.9125 17.1823 10.5739 16.8438 10.1563 16.8438Z" fill="url(#paint32_linear_2_2)"/>
<g filter="url(#filter7_f_2_2)">
<path d="M34.3188 5.6875C36.0438 5.37812 40.5203 5.6875 43.0594 8.22656C46.75 11.9172 45.9406 18.4312 43.0594 21.7031" stroke="url(#paint33_linear_2_2)" stroke-width="0.3" stroke-linecap="round"/>
</g>
<g filter="url(#filter8_f_2_2)">
<path d="M16.8953 31.0156V22.5187L31.8359 24.1797L16.8937 31.0156H16.8953Z" fill="url(#paint34_linear_2_2)"/>
</g>
<defs>
<filter id="filter0_f_2_2" x="17.8859" y="33.4437" width="2.3" height="12.8219" filterUnits="userSpaceOnUse" color-interpolation-filters="sRGB">
<feFlood flood-opacity="0" result="BackgroundImageFix"/>
<feBlend mode="normal" in="SourceGraphic" in2="BackgroundImageFix" result="shape"/>
<feGaussianBlur stdDeviation="0.5" result="effect1_foregroundBlur_2_2"/>
</filter>
<filter id="filter1_f_2_2" x="23.2342" y="36.2634" width="3.5316" height="9.24355" filterUnits="userSpaceOnUse" color-interpolation-filters="sRGB">
<feFlood flood-opacity="0" result="BackgroundImageFix"/>
<feBlend mode="normal" in="SourceGraphic" in2="BackgroundImageFix" result="shape"/>
<feGaussianBlur stdDeviation="0.35" result="effect1_foregroundBlur_2_2"/>
</filter>
<filter id="filter2_f_2_2" x="29.4714" y="36.557" width="3.45102" height="9.40324" filterUnits="userSpaceOnUse" color-interpolation-filters="sRGB">
<feFlood flood-opacity="0" result="BackgroundImageFix"/>
<feBlend mode="normal" in="SourceGraphic" in2="BackgroundImageFix" result="shape"/>
<feGaussianBlur stdDeviation="0.35" result="effect1_foregroundBlur_2_2"/>
</filter>
<filter id="filter3_f_2_2" x="29.2312" y="15.7842" width="15.6188" height="22.9455" filterUnits="userSpaceOnUse" color-interpolation-filters="sRGB">
<feFlood flood-opacity="0" result="BackgroundImageFix"/>
<feBlend mode="normal" in="SourceGraphic" in2="BackgroundImageFix" result="shape"/>
<feGaussianBlur stdDeviation="1.5" result="effect1_foregroundBlur_2_2"/>
</filter>
<filter id="filter4_f_2_2" x="35.6827" y="32.7828" width="7.6735" height="14.0219" filterUnits="userSpaceOnUse" color-interpolation-filters="sRGB">
<feFlood flood-opacity="0" result="BackgroundImageFix"/>
<feBlend mode="normal" in="SourceGraphic" in2="BackgroundImageFix" result="shape"/>
<feGaussianBlur stdDeviation="1" result="effect1_foregroundBlur_2_2"/>
</filter>
<filter id="filter5_f_2_2" x="10.9062" y="6.10312" width="9.27656" height="18.7984" filterUnits="userSpaceOnUse" color-interpolation-filters="sRGB">
<feFlood flood-opacity="0" result="BackgroundImageFix"/>
<feBlend mode="normal" in="SourceGraphic" in2="BackgroundImageFix" result="shape"/>
<feGaussianBlur stdDeviation="0.5" result="effect1_foregroundBlur_2_2"/>
</filter>
<filter id="filter6_f_2_2" x="8.58125" y="16.3438" width="2.51406" height="4.14999" filterUnits="userSpaceOnUse" color-interpolation-filters="sRGB">
<feFlood flood-opacity="0" result="BackgroundImageFix"/>
<feBlend mode="normal" in="SourceGraphic" in2="BackgroundImageFix" result="shape"/>
<feGaussianBlur stdDeviation="0.25" result="effect1_foregroundBlur_2_2"/>
</filter>
<filter id="filter7_f_2_2" x="33.5687" y="4.83901" width="12.7144" height="17.6141" filterUnits="userSpaceOnUse" color-interpolation-filters="sRGB">
<feFlood flood-opacity="0" result="BackgroundImageFix"/>
<feBlend mode="normal" in="SourceGraphic" in2="BackgroundImageFix" result="shape"/>
<feGaussianBlur stdDeviation="0.3" result="effect1_foregroundBlur_2_2"/>
</filter>
<filter id="filter8_f_2_2" x="14.3937" y="20.0187" width="19.9422" height="13.4969" filterUnits="userSpaceOnUse" color-interpolation-filters="sRGB">
<feFlood flood-opacity="0" result="BackgroundImageFix"/>
<feBlend mode="normal" in="SourceGraphic" in2="BackgroundImageFix" result="shape"/>
<feGaussianBlur stdDeviation="1.25" result="effect1_foregroundBlur_2_2"/>
</filter>
<linearGradient id="paint0_linear_2_2" x1="23.7313" y1="51.1328" x2="21.2406" y2="40.2438" gradientUnits="userSpaceOnUse">
<stop stop-color="#665895"/>
<stop offset="1" stop-color="#573787"/>
</linearGradient>
<linearGradient id="paint1_linear_2_2" x1="19.5234" y1="38.2625" x2="21.8656" y2="37.9281" gradientUnits="userSpaceOnUse">
<stop stop-color="#200D3C"/>
<stop offset="1" stop-color="#200D3C" stop-opacity="0"/>
</linearGradient>
<linearGradient id="paint2_linear_2_2" x1="26.5625" y1="36.3875" x2="23.7109" y2="37.4" gradientUnits="userSpaceOnUse">
<stop stop-color="#200D3C"/>
<stop offset="1" stop-color="#200D3C" stop-opacity="0"/>
</linearGradient>
<linearGradient id="paint3_linear_2_2" x1="18.75" y1="32.5781" x2="24.3641" y2="42.3719" gradientUnits="userSpaceOnUse">
<stop stop-color="#200D3C"/>
<stop offset="1" stop-color="#200D3C" stop-opacity="0"/>
</linearGradient>
<linearGradient id="paint4_linear_2_2" x1="24.1703" y1="48.0563" x2="24.3094" y2="43.5203" gradientUnits="userSpaceOnUse">
<stop stop-color="#592C87"/>
<stop offset="0.64" stop-color="#592C87" stop-opacity="0"/>
</linearGradient>
<linearGradient id="paint5_linear_2_2" x1="20.6547" y1="28.8187" x2="23.0469" y2="43.2234" gradientUnits="userSpaceOnUse">
<stop stop-color="#4E4360"/>
<stop offset="1" stop-color="#3A2953" stop-opacity="0"/>
</linearGradient>
<linearGradient id="paint6_linear_2_2" x1="32.7594" y1="51.1328" x2="30.2687" y2="40.2438" gradientUnits="userSpaceOnUse">
<stop stop-color="#665895"/>
<stop offset="1" stop-color="#573787"/>
</linearGradient>
<linearGradient id="paint7_linear_2_2" x1="28.2234" y1="37.4125" x2="30.9187" y2="37.9172" gradientUnits="userSpaceOnUse">
<stop stop-color="#200D3C"/>
<stop offset="1" stop-color="#200D3C" stop-opacity="0"/>
</linearGradient>
<linearGradient id="paint8_linear_2_2" x1="37.6469" y1="37.4609" x2="32.7109" y2="37.4609" gradientUnits="userSpaceOnUse">
<stop stop-color="#200D3C"/>
<stop offset="1" stop-color="#200D3C" stop-opacity="0"/>
</linearGradient>
<linearGradient id="paint9_linear_2_2" x1="36.2109" y1="32.5297" x2="33.4016" y2="42.6234" gradientUnits="userSpaceOnUse">
<stop stop-color="#200D3C"/>
<stop offset="1" stop-color="#200D3C" stop-opacity="0"/>
</linearGradient>
<linearGradient id="paint10_linear_2_2" x1="33.1984" y1="48.0563" x2="33.3375" y2="43.5203" gradientUnits="userSpaceOnUse">
<stop stop-color="#592C87"/>
<stop offset="0.64" stop-color="#592C87" stop-opacity="0"/>
</linearGradient>
<linearGradient id="paint11_linear_2_2" x1="35.1078" y1="33.4219" x2="32.3828" y2="45.1266" gradientUnits="userSpaceOnUse">
<stop stop-color="#3A2953"/>
<stop offset="1" stop-color="#3A2953" stop-opacity="0"/>
</linearGradient>
<radialGradient id="paint12_radial_2_2" cx="0" cy="0" r="1" gradientUnits="userSpaceOnUse" gradientTransform="translate(44.5311 2.89165) rotate(109.335) scale(17.6973 17.6973)">
<stop stop-color="#655D99"/>
<stop offset="1" stop-color="#5C4483"/>
</radialGradient>
<radialGradient id="paint13_radial_2_2" cx="0" cy="0" r="1" gradientUnits="userSpaceOnUse" gradientTransform="translate(31.9297 6.76093) rotate(5.71438) scale(5.88471 4.01839)">
<stop stop-color="#473881"/>
<stop offset="1" stop-color="#473881" stop-opacity="0"/>
</radialGradient>
<radialGradient id="paint14_radial_2_2" cx="0" cy="0" r="1" gradientUnits="userSpaceOnUse" gradientTransform="translate(38.5672 17.6016) rotate(-30.9638) scale(9.11086 16.1356)">
<stop stop-color="#473881"/>
<stop offset="1" stop-color="#473881" stop-opacity="0"/>
</radialGradient>
<radialGradient id="paint15_radial_2_2" cx="0" cy="0" r="1" gradientUnits="userSpaceOnUse" gradientTransform="translate(41.0078 13.4016) rotate(-20.3655) scale(6.87506 13.6877)">
<stop stop-color="#473881"/>
<stop offset="0.592" stop-color="#473881" stop-opacity="0"/>
</radialGradient>
<linearGradient id="paint16_linear_2_2" x1="23.4297" y1="16.7609" x2="23.4297" y2="45.0781" gradientUnits="userSpaceOnUse">
<stop stop-color="#665895"/>
<stop offset="1" stop-color="#573787"/>
</linearGradient>
<radialGradient id="paint17_radial_2_2" cx="0" cy="0" r="1" gradientUnits="userSpaceOnUse" gradientTransform="translate(27.0125 17.4984) rotate(65.7991) scale(6.13623 14.3621)">
<stop stop-color="#473881"/>
<stop offset="0.8" stop-color="#473881" stop-opacity="0"/>
</radialGradient>
<radialGradient id="paint18_radial_2_2" cx="0" cy="0" r="1" gradientUnits="userSpaceOnUse" gradientTransform="translate(28.3953 38.125) rotate(-88.4656) scale(7.04587 10.5371)">
<stop stop-color="#4F2A7F"/>
<stop offset="1" stop-color="#4F2A7F" stop-opacity="0"/>
</radialGradient>
<radialGradient id="paint19_radial_2_2" cx="0" cy="0" r="1" gradientUnits="userSpaceOnUse" gradientTransform="translate(14.1516 35.7344) rotate(-49.3988) scale(4.05853 4.53941)">
<stop stop-color="#4F2A7F"/>
<stop offset="0.805" stop-color="#4F2A7F" stop-opacity="0"/>
</radialGradient>
<linearGradient id="paint20_linear_2_2" x1="10.2469" y1="23.3641" x2="7.07344" y2="27.7578" gradientUnits="userSpaceOnUse">
<stop stop-color="#53378B" stop-opacity="0"/>
<stop offset="0.849" stop-color="#53378B"/>
</linearGradient>
<radialGradient id="paint21_radial_2_2" cx="0" cy="0" r="1" gradientUnits="userSpaceOnUse" gradientTransform="translate(5.14374 19.1142) rotate(140.717) scale(1.82941 1.26705)">
<stop offset="0.022" stop-color="#6B5E60"/>
<stop offset="0.991" stop-color="#433338"/>
</radialGradient>
<linearGradient id="paint22_linear_2_2" x1="6.23906" y1="22.7734" x2="6.23906" y2="19.6484" gradientUnits="userSpaceOnUse">
<stop stop-color="#432541"/>
<stop offset="1" stop-color="#552D52" stop-opacity="0"/>
</linearGradient>
<linearGradient id="paint23_linear_2_2" x1="5.81719" y1="22.125" x2="3.85781" y2="20.7609" gradientUnits="userSpaceOnUse">
<stop/>
<stop offset="1" stop-opacity="0"/>
</linearGradient>
<linearGradient id="paint24_linear_2_2" x1="3.97969" y1="22.7141" x2="3.97969" y2="19.5172" gradientUnits="userSpaceOnUse">
<stop/>
<stop offset="0.626" stop-opacity="0"/>
</linearGradient>
<linearGradient id="paint25_linear_2_2" x1="-nan" y1="-nan" x2="-nan" y2="-nan" gradientUnits="userSpaceOnUse">
<stop stop-color="#9784C0"/>
<stop offset="1" stop-color="#8776AC" stop-opacity="0"/>
</linearGradient>
<linearGradient id="paint26_linear_2_2" x1="25.2719" y1="39.5391" x2="26.0297" y2="46.0656" gradientUnits="userSpaceOnUse">
<stop stop-color="#9784C0"/>
<stop offset="1" stop-color="#8776AC" stop-opacity="0"/>
</linearGradient>
<linearGradient id="paint27_linear_2_2" x1="31.4562" y1="39.8844" x2="32.2797" y2="46.5359" gradientUnits="userSpaceOnUse">
<stop stop-color="#9784C0"/>
<stop offset="1" stop-color="#8776AC" stop-opacity="0"/>
</linearGradient>
<linearGradient id="paint28_linear_2_2" x1="38.2484" y1="24.5031" x2="38.9688" y2="37.9953" gradientUnits="userSpaceOnUse">
<stop stop-color="#9784C0"/>
<stop offset="1" stop-color="#8776AC" stop-opacity="0"/>
</linearGradient>
<linearGradient id="paint29_linear_2_2" x1="39.9641" y1="38.15" x2="40.6578" y2="46.1703" gradientUnits="userSpaceOnUse">
<stop stop-color="#9784C0"/>
<stop offset="1" stop-color="#8776AC" stop-opacity="0"/>
</linearGradient>
<linearGradient id="paint30_linear_2_2" x1="15.5438" y1="7.10312" x2="15.5438" y2="24.5703" gradientUnits="userSpaceOnUse">
<stop stop-color="#9087B1"/>
<stop offset="1" stop-color="#9087B1" stop-opacity="0"/>
</linearGradient>
<linearGradient id="paint31_linear_2_2" x1="10.7" y1="18.4187" x2="9.85156" y2="18.4187" gradientUnits="userSpaceOnUse">
<stop offset="0.224" stop-color="#5B4C50"/>
<stop offset="1" stop-color="#342132"/>
</linearGradient>
<linearGradient id="paint32_linear_2_2" x1="11.15" y1="20.5453" x2="11.15" y2="17.8875" gradientUnits="userSpaceOnUse">
<stop stop-color="#401E3E"/>
<stop offset="1" stop-color="#552D52" stop-opacity="0"/>
</linearGradient>
<linearGradient id="paint33_linear_2_2" x1="41.4969" y1="10.8625" x2="42.0641" y2="24.5156" gradientUnits="userSpaceOnUse">
<stop stop-color="#8776AC"/>
<stop offset="1" stop-color="#8776AC" stop-opacity="0"/>
</linearGradient>
<linearGradient id="paint34_linear_2_2" x1="12.2078" y1="31.2875" x2="30.7625" y2="31.2875" gradientUnits="userSpaceOnUse">
<stop stop-color="#9087B1" stop-opacity="0.5"/>
<stop offset="1" stop-color="#9087B1" stop-opacity="0"/>
</linearGradient>
</defs>
</svg>
